<svg width="430" height="49" viewBox="0 0 430 49" fill="none" xmlns="http://www.w3.org/2000/svg">
<path d="M33.0142 18.0628C32.1564 18.0628 31.39 18.2454 30.7149 18.6106C30.0453 18.9703 29.5196 19.4684 29.1377 20.1048C28.7614 20.7356 28.5733 21.4578 28.5733 22.2713V22.2879C28.5733 23.0405 28.7393 23.7156 29.0713 24.3133C29.4089 24.9109 29.871 25.3813 30.4576 25.7244C31.0441 26.0675 31.7193 26.239 32.4829 26.239C33.0363 26.239 33.5178 26.156 33.9273 25.99C34.3423 25.824 34.6909 25.6054 34.9732 25.3343C35.2554 25.0631 35.4685 24.7698 35.6123 24.4544H35.9029V22.2464H35.4048V22.263C35.4048 22.7112 35.2997 23.1124 35.0894 23.4666C34.8791 23.8207 34.5941 24.0974 34.2344 24.2967C33.8747 24.4959 33.468 24.5955 33.0142 24.5955C32.5604 24.5955 32.1564 24.4931 31.8023 24.2884C31.4481 24.0836 31.1687 23.8041 30.9639 23.45C30.7591 23.0903 30.6568 22.678 30.6568 22.2132V22.1966C30.6568 21.7483 30.7647 21.3444 30.9805 20.9846C31.1963 20.6194 31.4841 20.3317 31.8438 20.1214C32.2035 19.9111 32.5992 19.8059 33.0308 19.8059C33.479 19.8059 33.8802 19.9138 34.2344 20.1297C34.5941 20.3455 34.8791 20.6388 35.0894 21.0096C35.2997 21.3803 35.4048 21.7926 35.4048 22.2464L35.7784 24.2469C35.7784 24.3243 35.7784 24.4046 35.7784 24.4876C35.7784 24.5651 35.7756 24.6453 35.7701 24.7283C35.7424 25.492 35.6262 26.1892 35.4214 26.8201C35.2222 27.4454 34.9206 27.9462 34.5166 28.3225C34.1182 28.6933 33.6035 28.8787 32.9727 28.8787C32.6241 28.8787 32.3086 28.8234 32.0264 28.7127C31.7497 28.5965 31.5117 28.4332 31.3125 28.2229C31.1188 28.0126 30.9694 27.7692 30.8643 27.4925L30.8311 27.4095H28.731L28.7476 27.5008C28.8804 28.1095 29.1377 28.6518 29.5196 29.1277C29.9069 29.5981 30.3939 29.9689 30.9805 30.24C31.5726 30.5056 32.2367 30.6385 32.9727 30.6385C33.9743 30.6385 34.8348 30.3839 35.5542 29.8748C36.2792 29.3601 36.8353 28.6241 37.2227 27.6668C37.6101 26.7094 37.8037 25.5584 37.8037 24.2137V24.1971C37.8037 23.1124 37.6765 22.1855 37.4219 21.4163C37.1673 20.6416 36.8159 20.0079 36.3677 19.5154C35.925 19.0174 35.4159 18.6521 34.8404 18.4197C34.2648 18.1818 33.6561 18.0628 33.0142 18.0628ZM41.5723 28.7293C41.9541 28.7293 42.2696 28.6048 42.5186 28.3557C42.7676 28.1012 42.8921 27.7913 42.8921 27.4261C42.8921 27.0553 42.7676 26.7454 42.5186 26.4964C42.2696 26.2418 41.9541 26.1145 41.5723 26.1145C41.196 26.1145 40.8806 26.2418 40.626 26.4964C40.377 26.7454 40.2525 27.0553 40.2525 27.4261C40.2525 27.7913 40.377 28.1012 40.626 28.3557C40.8806 28.6048 41.196 28.7293 41.5723 28.7293ZM41.5723 22.5701C41.9541 22.5701 42.2696 22.4456 42.5186 22.1966C42.7676 21.942 42.8921 21.6321 42.8921 21.2669C42.8921 20.8961 42.7676 20.5862 42.5186 20.3372C42.2696 20.0826 41.9541 19.9554 41.5723 19.9554C41.196 19.9554 40.8806 20.0826 40.626 20.3372C40.377 20.5862 40.2525 20.8961 40.2525 21.2669C40.2525 21.6321 40.377 21.942 40.626 22.1966C40.8806 22.4456 41.196 22.5701 41.5723 22.5701ZM51.1514 30.3396H53.1934V28.0403H54.812V26.2722H53.1934V18.3616H50.1802C49.8482 18.8541 49.5161 19.3605 49.1841 19.8806C48.8576 20.3953 48.5284 20.9182 48.1963 21.4495C47.8698 21.9752 47.5406 22.5092 47.2085 23.0515C46.882 23.5883 46.5583 24.1279 46.2373 24.6702C45.9219 25.2125 45.6065 25.7521 45.291 26.2888V28.0403H51.1514V30.3396ZM47.2832 26.3221V26.1975C47.5157 25.788 47.7564 25.3758 48.0054 24.9607C48.2544 24.5402 48.5062 24.1223 48.7608 23.7073C49.0153 23.2867 49.2727 22.8689 49.5327 22.4539C49.7928 22.0388 50.0502 21.6321 50.3047 21.2337C50.5648 20.8352 50.8166 20.4479 51.0601 20.0716H51.1846V26.3221H47.2832ZM59.7676 30.3396H61.9009V18.3616H59.7676L56.6382 20.5613V22.5701L59.6182 20.47H59.7676V30.3396Z" fill="white"/>
<rect opacity="0.35" x="381.964" y="18.5" width="24" height="12" rx="3.8" stroke="white"/>
<path opacity="0.4" d="M407.464 22.7811V26.8566C408.269 26.5114 408.792 25.7085 408.792 24.8189C408.792 23.9293 408.269 23.1263 407.464 22.7811" fill="white"/>
<rect x="383.464" y="20" width="21" height="9" rx="2.5" fill="white"/>
<path fill-rule="evenodd" clip-rule="evenodd" d="M365.735 21.104C368.222 21.1041 370.614 22.0262 372.417 23.6797C372.552 23.8074 372.769 23.8058 372.903 23.6761L374.2 22.4126C374.268 22.3469 374.306 22.2578 374.305 22.1651C374.305 22.0724 374.266 21.9838 374.197 21.9188C369.466 17.5441 362.003 17.5441 357.272 21.9188C357.203 21.9837 357.164 22.0724 357.164 22.165C357.163 22.2577 357.201 22.3468 357.268 22.4126L358.566 23.6761C358.7 23.8059 358.917 23.8076 359.053 23.6797C360.855 22.0261 363.248 21.104 365.735 21.104ZM365.732 25.3243C367.089 25.3242 368.398 25.836 369.404 26.7601C369.54 26.8913 369.754 26.8884 369.887 26.7537L371.174 25.4344C371.242 25.3652 371.28 25.2713 371.279 25.1738C371.278 25.0762 371.238 24.9831 371.169 24.9153C368.105 22.0245 363.36 22.0245 360.297 24.9153C360.227 24.9831 360.188 25.0762 360.187 25.1738C360.186 25.2714 360.224 25.3653 360.292 25.4344L361.579 26.7537C361.711 26.8884 361.926 26.8913 362.062 26.7601C363.067 25.8366 364.375 25.3249 365.732 25.3243ZM368.256 28.1179C368.258 28.2232 368.221 28.3248 368.154 28.3986L365.977 30.8533C365.913 30.9255 365.826 30.9661 365.735 30.9661C365.645 30.9661 365.558 30.9255 365.494 30.8533L363.317 28.3986C363.249 28.3247 363.212 28.2231 363.214 28.1178C363.216 28.0124 363.257 27.9127 363.327 27.842C364.717 26.5282 366.753 26.5282 368.143 27.842C368.213 27.9127 368.254 28.0125 368.256 28.1179Z" fill="white"/>
<path fill-rule="evenodd" clip-rule="evenodd" d="M349.664 19.6821C349.664 19.049 349.187 18.5358 348.598 18.5358H347.531C346.942 18.5358 346.464 19.049 346.464 19.6821V29.616C346.464 30.2491 346.942 30.7622 347.531 30.7622H348.598C349.187 30.7622 349.664 30.2491 349.664 29.616V19.6821ZM342.23 20.9811H343.297C343.886 20.9811 344.364 21.5066 344.364 22.1548V29.5885C344.364 30.2367 343.886 30.7622 343.297 30.7622H342.23C341.641 30.7622 341.164 30.2367 341.164 29.5885V22.1548C341.164 21.5066 341.641 20.9811 342.23 20.9811ZM337.899 23.6302H336.832C336.243 23.6302 335.765 24.1623 335.765 24.8188V29.5736C335.765 30.23 336.243 30.7622 336.832 30.7622H337.899C338.488 30.7622 338.965 30.23 338.965 29.5736V24.8188C338.965 24.1623 338.488 23.6302 337.899 23.6302ZM332.598 26.0755H331.531C330.942 26.0755 330.464 26.6 330.464 27.2471V29.5905C330.464 30.2377 330.942 30.7622 331.531 30.7622H332.598C333.187 30.7622 333.664 30.2377 333.664 29.5905V27.2471C333.664 26.6 333.187 26.0755 332.598 26.0755Z" fill="white"/>
</svg>
